<svg xmlns="http://www.w3.org/2000/svg" width="181.054" height="181.054" viewBox="0 0 181.054 181.054"><path d="M148.723,57.865h-19.4V41.7a9.7,9.7,0,0,0-9.7-9.7H9.7A9.7,9.7,0,0,0,0,41.7V203.355a9.7,9.7,0,0,0,9.7,9.7H119.625a9.7,9.7,0,0,0,9.7-9.7V186.336L161.9,171.8a32.367,32.367,0,0,0,19.154-29.524V90.2A32.368,32.368,0,0,0,148.723,57.865Zm6.466,84.408a6.474,6.474,0,0,1-3.831,5.9l-22.034,9.834V83.73h19.4a6.474,6.474,0,0,1,6.466,6.466ZM84.061,174.257a6.467,6.467,0,0,1-6.466-6.466V77.263a6.466,6.466,0,1,1,12.932,0V167.79A6.467,6.467,0,0,1,84.061,174.257Zm-38.8,0A6.467,6.467,0,0,1,38.8,167.79V77.263a6.466,6.466,0,1,1,12.932,0V167.79A6.467,6.467,0,0,1,45.263,174.257Z" transform="translate(0 -32)" fill="#e8d64c"/></svg>