<svg xmlns="http://www.w3.org/2000/svg" width="260" height="231.109" viewBox="0 0 260 231.109"><path d="M133.607,209.442H108.329V152.92L184.5,76.758a11.118,11.118,0,0,0-7.863-18.981H11.137A11.118,11.118,0,0,0,3.274,76.758L79.441,152.92v56.522H54.163A18.056,18.056,0,0,0,36.108,227.5a3.61,3.61,0,0,0,3.611,3.611H148.051a3.61,3.61,0,0,0,3.611-3.611A18.056,18.056,0,0,0,133.607,209.442ZM195,0a64.805,64.805,0,0,0-61.018,43.333h23.716a43.329,43.329,0,1,1,19.554,61.1l-15.916,15.916A64.908,64.908,0,1,0,195,0Z" transform="translate(0.006 0)" fill="#00c4c4"/></svg>