<svg xmlns="http://www.w3.org/2000/svg" width="195" height="260" viewBox="0 0 195 260"><path d="M182.813,32.5A12.187,12.187,0,0,0,195,20.313V12.188A12.187,12.187,0,0,0,182.813,0H12.188A12.187,12.187,0,0,0,0,12.188v8.125A12.187,12.187,0,0,0,12.188,32.5c0,46.193,25.907,85.177,61.365,97.5-35.459,12.323-61.365,51.307-61.365,97.5A12.187,12.187,0,0,0,0,239.688v8.125A12.187,12.187,0,0,0,12.188,260H182.813A12.187,12.187,0,0,0,195,247.813v-8.125A12.187,12.187,0,0,0,182.813,227.5c0-46.193-25.907-85.177-61.365-97.5C156.906,117.677,182.813,78.693,182.813,32.5ZM97.5,105.625c-29.345,0-52.812-33.779-52.812-73.125H150.312C150.312,72.081,126.694,105.625,97.5,105.625Z"/></svg>