<svg xmlns="http://www.w3.org/2000/svg" width="260" height="231.111" viewBox="0 0 260 231.111"><path d="M254.583,0h-35.66a5.426,5.426,0,0,0-3.837,9.253l7.628,7.628L200.733,38.865a65.079,65.079,0,0,0-74.885,3.972,79.7,79.7,0,0,1,14.49,25.774,36.111,36.111,0,1,1,0,50.556,78.877,78.877,0,0,1-14.49,25.774,65.019,65.019,0,0,0,95.288-85.674l21.983-21.983,7.628,7.628a5.3,5.3,0,0,0,3.792,1.58A5.41,5.41,0,0,0,260,41.076V5.417A5.433,5.433,0,0,0,254.583,0ZM65,28.889A65,65,0,0,0,50.556,157.264v23.292H34.306a5.433,5.433,0,0,0-5.417,5.417v18.056a5.433,5.433,0,0,0,5.417,5.417h16.25v16.25a5.433,5.433,0,0,0,5.417,5.417H74.028a5.433,5.433,0,0,0,5.417-5.417v-16.25h16.25a5.433,5.433,0,0,0,5.417-5.417V185.972a5.433,5.433,0,0,0-5.417-5.417H79.444V157.264A65,65,0,0,0,65,28.889ZM65,130a36.111,36.111,0,1,1,36.111-36.111A36.159,36.159,0,0,1,65,130Z"/></svg>