<svg xmlns="http://www.w3.org/2000/svg" width="130.519" height="232.037" viewBox="0 0 130.519 232.037"><path d="M97.892,210.284H79.764v-53.11A65.554,65.554,0,0,0,130.25,87.308L123.022,6.594A7.189,7.189,0,0,0,115.9,0H14.621A7.185,7.185,0,0,0,7.506,6.594L.273,87.313a65.554,65.554,0,0,0,50.486,69.865v53.106H32.631A18.129,18.129,0,0,0,14.5,228.411a3.625,3.625,0,0,0,3.626,3.626h94.265a3.625,3.625,0,0,0,3.626-3.626A18.129,18.129,0,0,0,97.892,210.284ZM27.986,21.753h74.551l3.249,36.256H24.737Z" transform="translate(-0.002 0)" fill="#4c1290"/></svg>